<mxfile host="app.diagrams.net" modified="2022-10-13T09:34:31.773Z" agent="5.0 (Windows NT 10.0; Win64; x64) AppleWebKit/537.36 (KHTML, like Gecko) Chrome/106.0.0.0 Safari/537.36" etag="XHR2_e50FPQ2kflUd5P4" version="20.4.0" type="github">
  <diagram id="FEKaMDVxbN-FaZEXxsOO" name="第 1 页">
    <mxGraphModel dx="1422" dy="1907" grid="1" gridSize="10" guides="1" tooltips="1" connect="1" arrows="1" fold="1" page="1" pageScale="1" pageWidth="827" pageHeight="1169" math="0" shadow="0">
      <root>
        <mxCell id="0" />
        <mxCell id="1" parent="0" />
        <mxCell id="IlgkVR0ljyAEe_TqYs28-63" style="edgeStyle=orthogonalEdgeStyle;rounded=0;orthogonalLoop=1;jettySize=auto;html=1;entryX=0.5;entryY=0;entryDx=0;entryDy=0;fontSize=11;" edge="1" parent="1" target="IlgkVR0ljyAEe_TqYs28-16">
          <mxGeometry relative="1" as="geometry">
            <mxPoint x="370" y="260" as="sourcePoint" />
          </mxGeometry>
        </mxCell>
        <mxCell id="IlgkVR0ljyAEe_TqYs28-67" style="edgeStyle=orthogonalEdgeStyle;rounded=0;orthogonalLoop=1;jettySize=auto;html=1;exitX=1;exitY=0.8;exitDx=0;exitDy=0;fontSize=11;" edge="1" parent="1" source="IlgkVR0ljyAEe_TqYs28-5">
          <mxGeometry relative="1" as="geometry">
            <mxPoint x="330" y="290" as="targetPoint" />
            <Array as="points">
              <mxPoint x="432" y="290" />
            </Array>
          </mxGeometry>
        </mxCell>
        <mxCell id="IlgkVR0ljyAEe_TqYs28-2" value="" style="shape=image;verticalLabelPosition=bottom;labelBackgroundColor=default;verticalAlign=top;aspect=fixed;imageAspect=0;image=https://upload.wikimedia.org/wikipedia/commons/thumb/9/92/SPST-NO_relay_symbol.svg/1200px-SPST-NO_relay_symbol.svg.png;" vertex="1" parent="1">
          <mxGeometry x="360" y="160" width="69" height="97.24" as="geometry" />
        </mxCell>
        <mxCell id="IlgkVR0ljyAEe_TqYs28-38" style="edgeStyle=orthogonalEdgeStyle;rounded=0;orthogonalLoop=1;jettySize=auto;html=1;exitX=0;exitY=0.8;exitDx=0;exitDy=0;fontSize=11;" edge="1" parent="1" source="IlgkVR0ljyAEe_TqYs28-5">
          <mxGeometry relative="1" as="geometry">
            <mxPoint x="330" y="460" as="targetPoint" />
            <Array as="points">
              <mxPoint x="432" y="151" />
              <mxPoint x="580" y="151" />
              <mxPoint x="580" y="460" />
            </Array>
          </mxGeometry>
        </mxCell>
        <mxCell id="IlgkVR0ljyAEe_TqYs28-5" value="" style="shape=mxgraph.electrical.electro-mechanical.singleSwitch;aspect=fixed;elSwitchState=off;rotation=-90;direction=west;" vertex="1" parent="1">
          <mxGeometry x="400" y="198.62" width="75" height="20" as="geometry" />
        </mxCell>
        <mxCell id="IlgkVR0ljyAEe_TqYs28-52" style="edgeStyle=orthogonalEdgeStyle;rounded=0;orthogonalLoop=1;jettySize=auto;html=1;exitX=1;exitY=0.8;exitDx=0;exitDy=0;fontSize=11;" edge="1" parent="1" source="IlgkVR0ljyAEe_TqYs28-6">
          <mxGeometry relative="1" as="geometry">
            <mxPoint x="750" y="300" as="targetPoint" />
          </mxGeometry>
        </mxCell>
        <mxCell id="IlgkVR0ljyAEe_TqYs28-6" value="" style="shape=mxgraph.electrical.electro-mechanical.singleSwitch;aspect=fixed;elSwitchState=off;rotation=-90;direction=west;" vertex="1" parent="1">
          <mxGeometry x="440" y="198.62" width="75" height="20" as="geometry" />
        </mxCell>
        <mxCell id="IlgkVR0ljyAEe_TqYs28-53" style="edgeStyle=orthogonalEdgeStyle;rounded=0;orthogonalLoop=1;jettySize=auto;html=1;exitX=1;exitY=0.8;exitDx=0;exitDy=0;fontSize=11;" edge="1" parent="1" source="IlgkVR0ljyAEe_TqYs28-7">
          <mxGeometry relative="1" as="geometry">
            <mxPoint x="750" y="300" as="targetPoint" />
            <Array as="points">
              <mxPoint x="507" y="273" />
              <mxPoint x="750" y="273" />
            </Array>
          </mxGeometry>
        </mxCell>
        <mxCell id="IlgkVR0ljyAEe_TqYs28-7" value="" style="shape=mxgraph.electrical.electro-mechanical.singleSwitch;aspect=fixed;elSwitchState=off;rotation=-90;direction=west;" vertex="1" parent="1">
          <mxGeometry x="475" y="198.62" width="75" height="20" as="geometry" />
        </mxCell>
        <mxCell id="IlgkVR0ljyAEe_TqYs28-8" value="" style="shape=mxgraph.electrical.electro-mechanical.singleSwitch;aspect=fixed;elSwitchState=off;rotation=-90;direction=west;" vertex="1" parent="1">
          <mxGeometry x="510" y="198.62" width="75" height="20" as="geometry" />
        </mxCell>
        <mxCell id="IlgkVR0ljyAEe_TqYs28-9" value="" style="pointerEvents=1;verticalLabelPosition=bottom;shadow=0;dashed=0;align=center;html=1;verticalAlign=top;shape=mxgraph.electrical.miscellaneous.batteryStack;" vertex="1" parent="1">
          <mxGeometry x="50" y="30" width="100" height="60" as="geometry" />
        </mxCell>
        <mxCell id="IlgkVR0ljyAEe_TqYs28-10" value="&lt;font style=&quot;font-size: 50px;&quot;&gt;24V/&lt;br&gt;Power Supply&lt;/font&gt;" style="text;html=1;strokeColor=none;fillColor=none;align=center;verticalAlign=middle;whiteSpace=wrap;rounded=0;" vertex="1" parent="1">
          <mxGeometry x="50" y="-110" width="110" height="70" as="geometry" />
        </mxCell>
        <mxCell id="IlgkVR0ljyAEe_TqYs28-11" value="" style="pointerEvents=1;verticalLabelPosition=bottom;shadow=0;dashed=0;align=center;html=1;verticalAlign=top;shape=mxgraph.electrical.miscellaneous.fuse_2;fontSize=50;" vertex="1" parent="1">
          <mxGeometry x="150" y="50" width="100" height="20" as="geometry" />
        </mxCell>
        <mxCell id="IlgkVR0ljyAEe_TqYs28-15" value="&lt;font style=&quot;font-size: 11px;&quot;&gt;Emergency Button&lt;/font&gt;" style="text;html=1;strokeColor=none;fillColor=none;align=center;verticalAlign=middle;whiteSpace=wrap;rounded=0;fontSize=49;" vertex="1" parent="1">
          <mxGeometry x="231.5" y="10" width="112" height="10" as="geometry" />
        </mxCell>
        <mxCell id="IlgkVR0ljyAEe_TqYs28-65" style="edgeStyle=orthogonalEdgeStyle;rounded=0;orthogonalLoop=1;jettySize=auto;html=1;exitX=0.75;exitY=0;exitDx=0;exitDy=0;fontSize=11;" edge="1" parent="1" source="IlgkVR0ljyAEe_TqYs28-16">
          <mxGeometry relative="1" as="geometry">
            <mxPoint x="335" y="290" as="targetPoint" />
            <Array as="points">
              <mxPoint x="260" y="240" />
              <mxPoint x="310" y="240" />
              <mxPoint x="310" y="290" />
            </Array>
          </mxGeometry>
        </mxCell>
        <mxCell id="IlgkVR0ljyAEe_TqYs28-16" value="Controller (Emergency)" style="rounded=0;whiteSpace=wrap;html=1;fontSize=11;" vertex="1" parent="1">
          <mxGeometry x="170" y="250" width="120" height="60" as="geometry" />
        </mxCell>
        <mxCell id="IlgkVR0ljyAEe_TqYs28-22" value="" style="endArrow=none;html=1;rounded=0;fontSize=11;startArrow=none;" edge="1" parent="1" source="IlgkVR0ljyAEe_TqYs28-23">
          <mxGeometry width="50" height="50" relative="1" as="geometry">
            <mxPoint x="40" y="480" as="sourcePoint" />
            <mxPoint x="100" y="480" as="targetPoint" />
          </mxGeometry>
        </mxCell>
        <mxCell id="IlgkVR0ljyAEe_TqYs28-23" value="GND" style="text;html=1;strokeColor=none;fillColor=none;align=center;verticalAlign=middle;whiteSpace=wrap;rounded=0;fontSize=11;" vertex="1" parent="1">
          <mxGeometry x="40" y="480" width="60" height="30" as="geometry" />
        </mxCell>
        <mxCell id="IlgkVR0ljyAEe_TqYs28-24" value="" style="endArrow=none;html=1;rounded=0;fontSize=11;" edge="1" parent="1" target="IlgkVR0ljyAEe_TqYs28-23">
          <mxGeometry width="50" height="50" relative="1" as="geometry">
            <mxPoint x="40" y="479.9999999999998" as="sourcePoint" />
            <mxPoint x="100" y="479.9999999999998" as="targetPoint" />
          </mxGeometry>
        </mxCell>
        <mxCell id="IlgkVR0ljyAEe_TqYs28-25" value="" style="endArrow=none;html=1;rounded=0;fontSize=11;" edge="1" parent="1">
          <mxGeometry width="50" height="50" relative="1" as="geometry">
            <mxPoint x="40" y="480" as="sourcePoint" />
            <mxPoint x="100" y="480" as="targetPoint" />
          </mxGeometry>
        </mxCell>
        <mxCell id="IlgkVR0ljyAEe_TqYs28-27" style="edgeStyle=orthogonalEdgeStyle;rounded=0;orthogonalLoop=1;jettySize=auto;html=1;exitX=1;exitY=0.8;exitDx=0;exitDy=0;fontSize=11;" edge="1" parent="1" source="IlgkVR0ljyAEe_TqYs28-26">
          <mxGeometry relative="1" as="geometry">
            <mxPoint x="70" y="479.9999999999998" as="targetPoint" />
            <Array as="points">
              <mxPoint x="332" y="459" />
              <mxPoint x="70" y="459" />
            </Array>
          </mxGeometry>
        </mxCell>
        <mxCell id="IlgkVR0ljyAEe_TqYs28-26" value="" style="shape=mxgraph.electrical.electro-mechanical.pushbutton;aspect=fixed;elSwitchState=off;fontSize=11;rotation=90;" vertex="1" parent="1">
          <mxGeometry x="300" y="390" width="75" height="20" as="geometry" />
        </mxCell>
        <mxCell id="IlgkVR0ljyAEe_TqYs28-40" value="" style="endArrow=classic;html=1;rounded=0;fontSize=11;" edge="1" parent="1">
          <mxGeometry width="50" height="50" relative="1" as="geometry">
            <mxPoint x="470" y="60" as="sourcePoint" />
            <mxPoint x="471" y="172" as="targetPoint" />
          </mxGeometry>
        </mxCell>
        <mxCell id="IlgkVR0ljyAEe_TqYs28-43" value="" style="endArrow=classic;html=1;rounded=0;fontSize=11;" edge="1" parent="1">
          <mxGeometry width="50" height="50" relative="1" as="geometry">
            <mxPoint x="506" y="60" as="sourcePoint" />
            <mxPoint x="506" y="172" as="targetPoint" />
          </mxGeometry>
        </mxCell>
        <mxCell id="IlgkVR0ljyAEe_TqYs28-44" value="When button click,&lt;br&gt;robot start" style="text;html=1;strokeColor=none;fillColor=none;align=center;verticalAlign=middle;whiteSpace=wrap;rounded=0;fontSize=11;" vertex="1" parent="1">
          <mxGeometry x="360" y="385" width="60" height="30" as="geometry" />
        </mxCell>
        <mxCell id="IlgkVR0ljyAEe_TqYs28-60" style="edgeStyle=orthogonalEdgeStyle;rounded=0;orthogonalLoop=1;jettySize=auto;html=1;exitX=0.5;exitY=1;exitDx=0;exitDy=0;fontSize=11;" edge="1" parent="1" source="IlgkVR0ljyAEe_TqYs28-55">
          <mxGeometry relative="1" as="geometry">
            <mxPoint x="580" y="460" as="targetPoint" />
            <Array as="points">
              <mxPoint x="740" y="460" />
            </Array>
          </mxGeometry>
        </mxCell>
        <mxCell id="IlgkVR0ljyAEe_TqYs28-55" value="OUTPUT" style="rounded=0;whiteSpace=wrap;html=1;fontSize=11;" vertex="1" parent="1">
          <mxGeometry x="680" y="300" width="120" height="60" as="geometry" />
        </mxCell>
        <mxCell id="IlgkVR0ljyAEe_TqYs28-62" value="" style="endArrow=classic;html=1;rounded=0;fontSize=11;" edge="1" parent="1">
          <mxGeometry width="50" height="50" relative="1" as="geometry">
            <mxPoint x="370" y="60" as="sourcePoint" />
            <mxPoint x="370" y="171" as="targetPoint" />
          </mxGeometry>
        </mxCell>
        <mxCell id="IlgkVR0ljyAEe_TqYs28-64" value="" style="endArrow=classic;html=1;rounded=0;fontSize=11;entryX=0;entryY=0.8;entryDx=0;entryDy=0;" edge="1" parent="1" target="IlgkVR0ljyAEe_TqYs28-26">
          <mxGeometry width="50" height="50" relative="1" as="geometry">
            <mxPoint x="332" y="290" as="sourcePoint" />
            <mxPoint x="260" y="360" as="targetPoint" />
          </mxGeometry>
        </mxCell>
        <mxCell id="IlgkVR0ljyAEe_TqYs28-69" style="edgeStyle=orthogonalEdgeStyle;rounded=0;orthogonalLoop=1;jettySize=auto;html=1;exitX=1;exitY=0.8;exitDx=0;exitDy=0;fontSize=11;" edge="1" parent="1" source="IlgkVR0ljyAEe_TqYs28-68">
          <mxGeometry relative="1" as="geometry">
            <mxPoint x="507" y="60" as="targetPoint" />
          </mxGeometry>
        </mxCell>
        <mxCell id="IlgkVR0ljyAEe_TqYs28-68" value="" style="shape=mxgraph.electrical.electro-mechanical.singleSwitch;aspect=fixed;elSwitchState=off;fontSize=11;" vertex="1" parent="1">
          <mxGeometry x="250" y="44" width="75" height="20" as="geometry" />
        </mxCell>
      </root>
    </mxGraphModel>
  </diagram>
</mxfile>
